<?xml version="1.0" encoding="UTF-8"?>
<svg xmlns="http://www.w3.org/2000/svg" xmlns:xlink="http://www.w3.org/1999/xlink" width="164pt" height="185pt" viewBox="0 0 164 185" version="1.1">
<g id="surface1">
<path style=" stroke:none;fill-rule:nonzero;fill:rgb(66.27451%,72.54902%,79.607843%);fill-opacity:1;" d="M 163.992188 55.03125 C 163.992188 51.921875 163.328125 49.171875 161.988281 46.8125 C 160.671875 44.492188 158.699219 42.550781 156.054688 41.011719 C 134.21875 28.375 112.367188 15.78125 90.539062 3.132812 C 84.65625 -0.277344 78.953125 -0.152344 73.109375 3.304688 C 64.421875 8.449219 20.910156 33.46875 7.945312 41.003906 C 2.609375 44.109375 0.0078125 48.855469 0.0078125 55.027344 C 0 80.4375 0.0078125 105.847656 0 131.257812 C 0 134.300781 0.636719 136.996094 1.917969 139.320312 C 3.234375 141.707031 5.234375 143.707031 7.941406 145.277344 C 20.90625 152.816406 64.421875 177.832031 73.109375 182.976562 C 78.953125 186.4375 84.65625 186.5625 90.542969 183.152344 C 112.367188 170.503906 134.222656 157.90625 156.0625 145.269531 C 158.765625 143.699219 160.765625 141.699219 162.082031 139.3125 C 163.363281 136.988281 164 134.292969 164 131.25 C 164 131.25 164 80.445312 163.992188 55.03125 "/>
<path style=" stroke:none;fill-rule:nonzero;fill:rgb(49.803922%,54.509804%,60%);fill-opacity:1;" d="M 90.394531 3.296875 C 84.519531 -0.101562 78.824219 0.0195312 72.992188 3.46875 C 64.316406 8.601562 20.878906 33.554688 7.933594 41.074219 C 2.601562 44.167969 0.0078125 48.902344 0.0078125 55.058594 C 0 80.402344 0.0078125 105.746094 0 131.089844 C 0 134.125 0.636719 136.8125 1.914062 139.132812 C 3.230469 141.515625 5.226562 143.507812 7.925781 145.074219 C 10.890625 146.796875 15.460938 149.4375 20.839844 152.539062 L 140.695312 32.359375 C 123.925781 22.675781 107.152344 13 90.394531 3.296875 "/>
<path style=" stroke:none;fill-rule:nonzero;fill:rgb(100%,100%,100%);fill-opacity:1;" d="M 98.949219 81.558594 L 124.46875 81.738281 C 124.46875 71.078125 113.707031 44.964844 82.847656 44.964844 C 63.183594 44.964844 36.753906 57.5 36.753906 93.535156 C 36.753906 129.570312 62.664062 141.320312 82.847656 141.320312 C 115.53125 141.320312 123.339844 118.644531 123.339844 105.828125 L 98.992188 104.433594 C 98.992188 104.433594 99.644531 119.253906 82.71875 119.253906 C 67.09375 119.253906 64.484375 100.0625 64.484375 93.535156 C 64.484375 83.613281 68.003906 67.683594 82.71875 67.683594 C 97.429688 67.683594 98.949219 81.558594 98.949219 81.558594 "/>
</g>
</svg>
