<?xml version="1.0" encoding="UTF-8"?>
<svg xmlns="http://www.w3.org/2000/svg" xmlns:xlink="http://www.w3.org/1999/xlink" width="164pt" height="185pt" viewBox="0 0 164 185" version="1.1">
<g id="surface1">
<path style=" stroke:none;fill-rule:nonzero;fill:rgb(36.078431%,55.294118%,73.72549%);fill-opacity:1;" d="M 163.722656 54.421875 C 163.722656 51.316406 163.0625 48.578125 161.722656 46.222656 C 160.40625 43.910156 158.4375 41.96875 155.796875 40.4375 C 134 27.835938 112.183594 15.269531 90.394531 2.65625 C 84.519531 -0.746094 78.824219 -0.621094 72.992188 2.828125 C 64.316406 7.957031 20.878906 32.914062 7.933594 40.429688 C 2.601562 43.523438 0.0078125 48.261719 0.0078125 54.414062 C 0 79.757812 0.0078125 105.101562 0 130.449219 C 0 133.484375 0.636719 136.171875 1.914062 138.488281 C 3.230469 140.871094 5.226562 142.863281 7.925781 144.433594 C 20.871094 151.949219 64.316406 176.902344 72.988281 182.035156 C 78.824219 185.484375 84.519531 185.609375 90.394531 182.207031 C 112.1875 169.589844 134.003906 157.027344 155.804688 144.425781 C 158.507812 142.859375 160.503906 140.863281 161.820312 138.480469 C 163.097656 136.164062 163.730469 133.476562 163.730469 130.441406 C 163.730469 130.441406 163.730469 79.765625 163.722656 54.421875 "/>
<path style=" stroke:none;fill-rule:nonzero;fill:rgb(10.196078%,27.45098%,45.490196%);fill-opacity:1;" d="M 82.117188 92.183594 L 1.914062 138.488281 C 3.230469 140.871094 5.226562 142.863281 7.925781 144.433594 C 20.871094 151.949219 64.316406 176.902344 72.988281 182.035156 C 78.824219 185.484375 84.519531 185.609375 90.394531 182.207031 C 112.1875 169.589844 134.003906 157.027344 155.804688 144.425781 C 158.507812 142.859375 160.503906 140.863281 161.820312 138.480469 L 82.117188 92.183594 "/>
<path style=" stroke:none;fill-rule:nonzero;fill:rgb(10.196078%,27.45098%,45.490196%);fill-opacity:1;" d="M 58.363281 105.898438 C 63.027344 114.070312 71.800781 119.578125 81.867188 119.578125 C 91.992188 119.578125 100.816406 114 105.460938 105.742188 L 82.117188 92.183594 L 58.363281 105.898438 "/>
<path style=" stroke:none;fill-rule:nonzero;fill:rgb(10.588235%,34.901961%,55.686275%);fill-opacity:1;" d="M 163.722656 54.421875 C 163.722656 51.316406 163.0625 48.578125 161.722656 46.222656 L 82.117188 92.183594 L 161.820312 138.480469 C 163.097656 136.164062 163.730469 133.476562 163.730469 130.441406 C 163.730469 130.441406 163.730469 79.765625 163.722656 54.421875 "/>
<path style=" stroke:none;fill-rule:nonzero;fill:rgb(100%,100%,100%);fill-opacity:1;" d="M 159.339844 95.492188 L 153.113281 95.492188 L 153.113281 101.742188 L 146.882812 101.742188 L 146.882812 95.492188 L 140.65625 95.492188 L 140.65625 89.25 L 146.882812 89.25 L 146.882812 83.003906 L 153.113281 83.003906 L 153.113281 89.25 L 159.339844 89.25 L 159.339844 95.492188 "/>
<path style=" stroke:none;fill-rule:nonzero;fill:rgb(100%,100%,100%);fill-opacity:1;" d="M 136.613281 95.492188 L 130.386719 95.492188 L 130.386719 101.742188 L 124.160156 101.742188 L 124.160156 95.492188 L 117.929688 95.492188 L 117.929688 89.25 L 124.160156 89.25 L 124.160156 83.003906 L 130.386719 83.003906 L 130.386719 89.25 L 136.613281 89.25 L 136.613281 95.492188 "/>
<path style=" stroke:none;fill-rule:nonzero;fill:rgb(100%,100%,100%);fill-opacity:1;" d="M 105.460938 105.742188 C 100.816406 114 91.992188 119.578125 81.867188 119.578125 C 71.800781 119.578125 63.027344 114.070312 58.363281 105.898438 C 56.09375 101.929688 54.789062 97.335938 54.789062 92.429688 C 54.789062 77.4375 66.914062 65.28125 81.867188 65.28125 C 91.867188 65.28125 100.59375 70.722656 105.28125 78.8125 L 128.949219 65.144531 C 119.542969 48.863281 101.980469 37.910156 81.867188 37.910156 C 51.835938 37.910156 27.492188 62.320312 27.492188 92.429688 C 27.492188 102.308594 30.113281 111.574219 34.695312 119.5625 C 44.078125 135.929688 61.6875 146.953125 81.867188 146.953125 C 102.082031 146.953125 119.71875 135.886719 129.089844 119.472656 L 105.460938 105.742188 "/>
</g>
</svg>
