<?xml version="1.0" encoding="UTF-8"?>
<svg xmlns="http://www.w3.org/2000/svg" xmlns:xlink="http://www.w3.org/1999/xlink" width="164pt" height="185pt" viewBox="0 0 164 185" version="1.1">
<g id="surface1">
<path style=" stroke:none;fill-rule:nonzero;fill:rgb(63.137255%,47.45098%,86.27451%);fill-opacity:1;" d="M 163.722656 54.25 C 163.722656 51.144531 163.0625 48.40625 161.722656 46.050781 C 160.40625 43.738281 158.4375 41.796875 155.796875 40.265625 C 134 27.664062 112.183594 15.097656 90.394531 2.484375 C 84.519531 -0.917969 78.824219 -0.792969 72.992188 2.65625 C 64.316406 7.785156 20.878906 32.742188 7.933594 40.257812 C 2.601562 43.351562 0.0078125 48.089844 0.0078125 54.242188 C 0 79.585938 0.0078125 104.929688 0 130.277344 C 0 133.3125 0.636719 136 1.914062 138.316406 C 3.230469 140.699219 5.226562 142.691406 7.925781 144.261719 C 20.871094 151.777344 64.316406 176.730469 72.988281 181.863281 C 78.824219 185.3125 84.519531 185.4375 90.394531 182.035156 C 112.1875 169.417969 134.003906 156.855469 155.804688 144.253906 C 158.507812 142.6875 160.503906 140.691406 161.820312 138.308594 C 163.097656 135.992188 163.730469 133.304688 163.730469 130.269531 C 163.730469 130.269531 163.730469 79.59375 163.722656 54.25 "/>
<path style=" stroke:none;fill-rule:nonzero;fill:rgb(15.686275%,0%,40.784314%);fill-opacity:1;" d="M 82.117188 92.011719 L 1.914062 138.316406 C 3.230469 140.699219 5.226562 142.691406 7.925781 144.261719 C 20.871094 151.777344 64.316406 176.730469 72.988281 181.863281 C 78.824219 185.3125 84.519531 185.4375 90.394531 182.035156 C 112.1875 169.417969 134.003906 156.855469 155.804688 144.253906 C 158.507812 142.6875 160.503906 140.691406 161.820312 138.308594 L 82.117188 92.011719 "/>
<path style=" stroke:none;fill-rule:nonzero;fill:rgb(22.352941%,0%,56.862745%);fill-opacity:1;" d="M 163.722656 54.25 C 163.722656 51.144531 163.0625 48.40625 161.722656 46.050781 L 82.117188 92.011719 L 161.820312 138.308594 C 163.097656 135.992188 163.730469 133.304688 163.730469 130.269531 C 163.730469 130.269531 163.730469 79.59375 163.722656 54.25 "/>
<path style=" stroke:none;fill-rule:nonzero;fill:rgb(100%,100%,100%);fill-opacity:1;" d="M 129.335938 74.703125 L 129.335938 83.359375 L 137.96875 83.359375 L 137.96875 74.703125 L 142.285156 74.703125 L 142.285156 83.359375 L 150.917969 83.359375 L 150.917969 87.683594 L 142.285156 87.683594 L 142.285156 96.339844 L 150.917969 96.339844 L 150.917969 100.667969 L 142.285156 100.667969 L 142.285156 109.324219 L 137.96875 109.324219 L 137.96875 100.667969 L 129.335938 100.667969 L 129.335938 109.324219 L 125.019531 109.324219 L 125.019531 100.667969 L 116.390625 100.667969 L 116.390625 96.339844 L 125.019531 96.339844 L 125.019531 87.683594 L 116.390625 87.683594 L 116.390625 83.359375 L 125.019531 83.359375 L 125.019531 74.703125 Z M 137.96875 87.683594 L 129.335938 87.683594 L 129.335938 96.339844 L 137.96875 96.339844 Z M 137.96875 87.683594 "/>
<path style=" stroke:none;fill-rule:nonzero;fill:rgb(100%,100%,100%);fill-opacity:1;" d="M 82.292969 31.234375 C 104.804688 31.234375 124.464844 43.496094 134.992188 61.71875 L 134.890625 61.542969 L 108.398438 76.835938 C 103.179688 67.976562 93.613281 61.996094 82.636719 61.875 L 82.292969 61.871094 C 65.554688 61.871094 51.988281 75.476562 51.988281 92.257812 C 51.988281 97.746094 53.445312 102.890625 55.984375 107.335938 C 61.207031 116.480469 71.027344 122.648438 82.292969 122.648438 C 93.628906 122.648438 103.503906 116.402344 108.699219 107.160156 L 108.574219 107.378906 L 135.023438 122.746094 C 124.609375 140.8125 105.222656 153.035156 82.96875 153.28125 L 82.292969 153.285156 C 59.707031 153.285156 39.996094 140.949219 29.492188 122.628906 C 24.367188 113.683594 21.433594 103.316406 21.433594 92.257812 C 21.433594 58.558594 48.679688 31.234375 82.292969 31.234375 Z M 82.292969 31.234375 "/>
</g>
</svg>
