<?xml version="1.0" encoding="UTF-8"?>
<svg xmlns="http://www.w3.org/2000/svg" xmlns:xlink="http://www.w3.org/1999/xlink" width="256pt" height="185pt" viewBox="0 0 256 185" version="1.1">
<g id="surface1">
<path style=" stroke:none;fill-rule:nonzero;fill:rgb(13.72549%,58.823529%,92.941176%);fill-opacity:1;" d="M 250.714844 70.496094 C 244.949219 66.496094 231.742188 64.996094 221.414062 66.996094 C 220.210938 56.996094 214.6875 48.25 205.078125 40.5 L 199.554688 36.5 L 195.710938 42.25 C 190.90625 49.746094 188.503906 60.246094 189.226562 70.246094 C 189.464844 73.746094 190.667969 79.996094 194.269531 85.496094 C 190.90625 87.496094 183.941406 89.996094 174.816406 89.996094 L 1.15625 89.996094 L 0.675781 91.996094 C -1.007812 101.996094 -1.007812 133.246094 18.6875 157.242188 C 33.582031 175.492188 55.679688 184.742188 84.742188 184.742188 C 147.671875 184.742188 194.269531 154.492188 216.128906 99.746094 C 224.773438 99.996094 243.269531 99.746094 252.636719 80.996094 C 252.878906 80.496094 253.359375 79.496094 255.039062 75.746094 L 256 73.746094 Z M 139.988281 0 L 113.566406 0 L 113.566406 25 L 139.988281 25 Z M 139.988281 30 L 113.566406 30 L 113.566406 54.996094 L 139.988281 54.996094 Z M 108.761719 30 L 82.339844 30 L 82.339844 54.996094 L 108.761719 54.996094 Z M 77.535156 30 L 51.113281 30 L 51.113281 54.996094 L 77.535156 54.996094 Z M 46.3125 59.996094 L 19.890625 59.996094 L 19.890625 84.996094 L 46.3125 84.996094 Z M 77.535156 59.996094 L 51.113281 59.996094 L 51.113281 84.996094 L 77.535156 84.996094 Z M 108.761719 59.996094 L 82.339844 59.996094 L 82.339844 84.996094 L 108.761719 84.996094 Z M 139.988281 59.996094 L 113.566406 59.996094 L 113.566406 84.996094 L 139.988281 84.996094 Z M 171.210938 59.996094 L 144.789062 59.996094 L 144.789062 84.996094 L 171.210938 84.996094 Z M 171.210938 59.996094 "/>
</g>
</svg>
