<?xml version="1.0" encoding="UTF-8"?>
<svg xmlns="http://www.w3.org/2000/svg" xmlns:xlink="http://www.w3.org/1999/xlink" width="493pt" height="185pt" viewBox="0 0 493 185" version="1.1">
<g id="surface1">
<path style=" stroke:none;fill-rule:nonzero;fill:rgb(0%,67.45098%,84.313725%);fill-opacity:1;" d="M 281.675781 12.808594 L 282.761719 13.535156 C 295.480469 21.941406 304.601562 33.46875 310.605469 47.402344 C 312.042969 49.5625 311.082031 50.765625 308.203125 51.484375 L 303.328125 52.734375 C 292.304688 55.574219 283.558594 57.964844 272.683594 60.804688 L 266.476562 62.421875 C 264.246094 62.976562 263.628906 62.742188 261.25 60.035156 L 260.917969 59.652344 C 257.527344 55.808594 254.988281 53.242188 250.5 50.949219 L 249.636719 50.523438 C 234.511719 43.078125 219.871094 45.238281 206.1875 54.125 C 189.867188 64.695312 181.464844 80.308594 181.707031 99.765625 C 181.945312 118.980469 195.148438 134.832031 214.109375 137.472656 C 230.433594 139.636719 244.113281 133.871094 254.914062 121.621094 C 257.078125 118.980469 258.996094 116.097656 261.398438 112.734375 L 215.070312 112.734375 C 210.03125 112.734375 208.828125 109.613281 210.507812 105.527344 L 211.34375 103.570312 C 214.425781 96.386719 219.210938 86.0625 222.320312 80.160156 L 222.996094 78.890625 C 223.828125 77.449219 225.511719 75.503906 228.753906 75.503906 L 306 75.503906 C 309.46875 64.503906 315.097656 54.113281 322.605469 44.277344 C 340.128906 21.21875 361.25 9.210938 389.816406 4.164062 C 414.296875 -0.15625 437.339844 2.246094 458.222656 16.414062 C 477.1875 29.386719 488.949219 46.921875 492.070312 69.980469 C 496.148438 102.40625 486.789062 128.828125 464.464844 151.40625 C 448.625 167.5 429.179688 177.585938 406.855469 182.152344 C 400.375 183.351562 393.894531 183.59375 387.65625 184.3125 C 365.8125 183.832031 345.890625 177.585938 329.085938 163.175781 C 317.269531 152.953125 309.128906 140.390625 305.082031 125.761719 C 302.277344 131.4375 298.917969 136.871094 295 142.039062 C 277.71875 164.855469 255.15625 179.027344 226.59375 182.871094 C 203.070312 185.996094 181.226562 181.429688 162.023438 167.019531 C 144.261719 153.566406 134.179688 135.792969 131.539062 113.695312 C 128.417969 87.515625 136.097656 63.972656 151.941406 43.316406 C 168.984375 20.980469 191.546875 6.808594 219.152344 1.765625 C 241.296875 -2.242188 262.515625 0.226562 281.675781 12.808594 Z M 395.863281 47.230469 L 395.09375 47.402344 C 372.773438 52.445312 358.371094 66.617188 353.089844 89.195312 C 348.769531 107.929688 357.890625 126.90625 375.171875 134.59375 C 388.375 140.355469 401.578125 139.636719 414.296875 133.152344 C 433.261719 123.304688 443.582031 107.929688 444.78125 87.273438 C 444.542969 84.152344 444.542969 81.75 444.0625 79.347656 C 439.789062 55.835938 418.386719 42.421875 395.863281 47.230469 Z M 112.097656 91.117188 C 113.054688 91.117188 113.535156 91.835938 113.535156 92.796875 L 113.054688 98.5625 C 113.054688 99.523438 112.097656 100.246094 111.375 100.246094 L 59.046875 100.003906 C 58.089844 100.003906 57.847656 99.285156 58.328125 98.5625 L 61.6875 92.558594 C 62.167969 91.835938 63.128906 91.117188 64.089844 91.117188 Z M 117.375 69.019531 C 118.335938 69.019531 118.816406 69.738281 118.578125 70.460938 L 116.65625 76.222656 C 116.417969 77.183594 115.457031 77.664062 114.496094 77.664062 L 0.960938 77.90625 C 0 77.90625 -0.238281 77.425781 0.238281 76.703125 L 5.28125 70.21875 C 5.761719 69.5 6.960938 69.019531 7.921875 69.019531 Z M 129.859375 46.921875 C 130.820312 46.921875 131.058594 47.640625 130.578125 48.363281 L 126.496094 54.605469 C 126.019531 55.328125 124.816406 56.046875 124.097656 56.046875 L 37.207031 55.808594 C 36.246094 55.808594 36.003906 55.328125 36.484375 54.605469 L 41.527344 48.121094 C 42.007812 47.402344 43.207031 46.921875 44.167969 46.921875 Z M 129.859375 46.921875 "/>
</g>
</svg>
