<?xml version="1.0" encoding="UTF-8"?>
<svg xmlns="http://www.w3.org/2000/svg" xmlns:xlink="http://www.w3.org/1999/xlink" width="131pt" height="185pt" viewBox="0 0 131 185" version="1.1">
<g id="surface1">
<path style=" stroke:none;fill-rule:nonzero;fill:rgb(89.411765%,30.196078%,14.901961%);fill-opacity:1;" d="M 130.773438 36.265625 L 118.878906 169.691406 L 65.421875 184.53125 L 12.109375 169.710938 L 0.226562 36.265625 Z M 130.773438 36.265625 "/>
<path style=" stroke:none;fill-rule:nonzero;fill:rgb(94.509804%,39.607843%,16.078431%);fill-opacity:1;" d="M 65.5 173.1875 L 108.699219 161.195312 L 118.859375 47.175781 L 65.5 47.175781 Z M 65.5 173.1875 "/>
<path style=" stroke:none;fill-rule:nonzero;fill:rgb(92.156863%,92.156863%,92.156863%);fill-opacity:1;" d="M 42.378906 79.910156 L 65.5 79.910156 L 65.5 63.542969 L 24.519531 63.542969 L 24.910156 67.933594 L 28.929688 113.035156 L 65.5 113.035156 L 65.5 96.667969 L 43.875 96.667969 Z M 42.378906 79.910156 "/>
<path style=" stroke:none;fill-rule:nonzero;fill:rgb(92.156863%,92.156863%,92.156863%);fill-opacity:1;" d="M 46.0625 121.21875 L 29.65625 121.21875 L 31.949219 146.917969 L 65.425781 156.222656 L 65.5 156.203125 L 65.5 139.175781 L 65.429688 139.195312 L 47.226562 134.273438 Z M 46.0625 121.21875 "/>
<path style=" stroke:none;fill-rule:nonzero;fill:rgb(0%,0%,0%);fill-opacity:1;" d="M 12.375 0 L 20.679688 0 L 20.679688 8.21875 L 28.277344 8.21875 L 28.277344 0 L 36.582031 0 L 36.582031 24.882812 L 28.277344 24.882812 L 28.277344 16.550781 L 20.679688 16.550781 L 20.679688 24.882812 L 12.375 24.882812 Z M 12.375 0 "/>
<path style=" stroke:none;fill-rule:nonzero;fill:rgb(0%,0%,0%);fill-opacity:1;" d="M 47.503906 8.253906 L 40.191406 8.253906 L 40.191406 0 L 63.125 0 L 63.125 8.253906 L 55.808594 8.253906 L 55.808594 24.882812 L 47.503906 24.882812 Z M 47.503906 8.253906 "/>
<path style=" stroke:none;fill-rule:nonzero;fill:rgb(0%,0%,0%);fill-opacity:1;" d="M 66.761719 0 L 75.421875 0 L 80.75 8.742188 L 86.074219 0 L 94.734375 0 L 94.734375 24.882812 L 86.464844 24.882812 L 86.464844 12.550781 L 80.75 21.398438 L 80.609375 21.398438 L 74.890625 12.550781 L 74.890625 24.882812 L 66.761719 24.882812 Z M 66.761719 0 "/>
<path style=" stroke:none;fill-rule:nonzero;fill:rgb(0%,0%,0%);fill-opacity:1;" d="M 98.867188 0 L 107.175781 0 L 107.175781 16.660156 L 118.855469 16.660156 L 118.855469 24.882812 L 98.867188 24.882812 Z M 98.867188 0 "/>
<path style=" stroke:none;fill-rule:nonzero;fill:rgb(100%,100%,100%);fill-opacity:1;" d="M 65.445312 113.035156 L 85.566406 113.035156 L 83.671875 134.261719 L 65.445312 139.1875 L 65.445312 156.214844 L 98.945312 146.917969 L 99.191406 144.152344 L 103.035156 101.0625 L 103.433594 96.667969 L 65.445312 96.667969 Z M 65.445312 113.035156 "/>
<path style=" stroke:none;fill-rule:nonzero;fill:rgb(100%,100%,100%);fill-opacity:1;" d="M 65.445312 79.871094 L 65.445312 79.910156 L 104.917969 79.910156 L 105.246094 76.230469 L 105.992188 67.933594 L 106.382812 63.542969 L 65.445312 63.542969 Z M 65.445312 79.871094 "/>
</g>
</svg>
