<?xml version="1.0" encoding="UTF-8"?>
<svg xmlns="http://www.w3.org/2000/svg" xmlns:xlink="http://www.w3.org/1999/xlink" width="136pt" height="185pt" viewBox="0 0 136 185" version="1.1">
<g id="surface1">
<path style=" stroke:none;fill-rule:nonzero;fill:rgb(32.54902%,50.980392%,63.137255%);fill-opacity:1;" d="M 43.855469 143.011719 C 43.855469 143.011719 36.84375 147.117188 48.847656 148.503906 C 63.386719 150.175781 70.816406 149.933594 86.839844 146.882812 C 86.839844 146.882812 91.054688 149.542969 96.9375 151.84375 C 61.015625 167.335938 15.644531 150.945312 43.855469 143.011719 "/>
<path style=" stroke:none;fill-rule:nonzero;fill:rgb(32.54902%,50.980392%,63.137255%);fill-opacity:1;" d="M 39.46875 122.792969 C 39.46875 122.792969 31.601562 128.652344 43.613281 129.902344 C 59.144531 131.515625 71.410156 131.648438 92.636719 127.535156 C 92.636719 127.535156 95.570312 130.53125 100.1875 132.167969 C 56.757812 144.949219 8.386719 133.175781 39.46875 122.792969 "/>
<path style=" stroke:none;fill-rule:nonzero;fill:rgb(90.588235%,43.529412%,0%);fill-opacity:1;" d="M 76.46875 88.496094 C 85.320312 98.753906 74.144531 107.980469 74.144531 107.980469 C 74.144531 107.980469 96.617188 96.304688 86.296875 81.683594 C 76.65625 68.050781 69.265625 61.273438 109.28125 37.917969 C 109.28125 37.917969 46.46875 53.707031 76.46875 88.496094 "/>
<path style=" stroke:none;fill-rule:nonzero;fill:rgb(32.54902%,50.980392%,63.137255%);fill-opacity:1;" d="M 123.976562 157.96875 C 123.976562 157.96875 129.164062 162.269531 118.261719 165.597656 C 97.527344 171.921875 31.96875 173.828125 13.753906 165.851562 C 7.210938 162.984375 19.484375 159.007812 23.347656 158.171875 C 27.375 157.292969 29.675781 157.457031 29.675781 157.457031 C 22.394531 152.292969 -17.382812 167.59375 9.472656 171.972656 C 82.707031 183.925781 142.96875 166.589844 123.976562 157.96875 "/>
<path style=" stroke:none;fill-rule:nonzero;fill:rgb(32.54902%,50.980392%,63.137255%);fill-opacity:1;" d="M 47.230469 101.847656 C 47.230469 101.847656 13.882812 109.816406 35.417969 112.710938 C 44.511719 113.9375 62.644531 113.660156 79.53125 112.238281 C 93.332031 111.066406 107.1875 108.574219 107.1875 108.574219 C 107.1875 108.574219 102.320312 110.671875 98.800781 113.089844 C 64.9375 122.054688 -0.480469 117.886719 18.351562 108.714844 C 34.277344 100.96875 47.230469 101.847656 47.230469 101.847656 "/>
<path style=" stroke:none;fill-rule:nonzero;fill:rgb(32.54902%,50.980392%,63.137255%);fill-opacity:1;" d="M 107.050781 135.5 C 141.476562 117.496094 125.558594 100.195312 114.449219 102.527344 C 111.726562 103.097656 110.511719 103.589844 110.511719 103.589844 C 110.511719 103.589844 111.523438 101.996094 113.453125 101.308594 C 135.429688 93.53125 152.332031 124.242188 106.359375 136.40625 C 106.359375 136.410156 106.890625 135.929688 107.050781 135.5 "/>
<path style=" stroke:none;fill-rule:nonzero;fill:rgb(90.588235%,43.529412%,0%);fill-opacity:1;" d="M 86.296875 0.199219 C 86.296875 0.199219 105.359375 19.394531 68.214844 48.910156 C 38.425781 72.585938 61.421875 86.085938 68.203125 101.507812 C 50.8125 85.71875 38.054688 71.820312 46.613281 58.882812 C 59.179688 39.894531 93.988281 30.6875 86.296875 0.199219 "/>
<path style=" stroke:none;fill-rule:nonzero;fill:rgb(32.54902%,50.980392%,63.137255%);fill-opacity:1;" d="M 50.609375 184.285156 C 83.65625 186.414062 134.394531 183.105469 135.597656 167.371094 C 135.597656 167.371094 133.289062 173.335938 108.289062 178.070312 C 80.085938 183.414062 45.300781 182.789062 24.671875 179.367188 C 24.671875 179.367188 28.894531 182.882812 50.609375 184.285156 "/>
</g>
</svg>
