<?xml version="1.0" encoding="UTF-8"?>
<svg xmlns="http://www.w3.org/2000/svg" xmlns:xlink="http://www.w3.org/1999/xlink" width="185pt" height="185pt" viewBox="0 0 185 185" version="1.1">
<g id="surface1">
<rect x="0" y="0" width="185" height="185" style="fill:rgb(96.862745%,87.45098%,11.764706%);fill-opacity:1;stroke:none;"/>
<path style=" stroke:none;fill-rule:nonzero;fill:rgb(0%,0%,0%);fill-opacity:1;" d="M 48.644531 154.597656 L 62.800781 146.03125 C 65.53125 150.875 68.015625 154.972656 73.976562 154.972656 C 79.6875 154.972656 83.289062 152.738281 83.289062 144.042969 L 83.289062 84.933594 L 100.675781 84.933594 L 100.675781 144.289062 C 100.675781 162.296875 90.121094 170.492188 74.722656 170.492188 C 60.8125 170.492188 52.742188 163.289062 48.644531 154.597656 "/>
<path style=" stroke:none;fill-rule:nonzero;fill:rgb(0%,0%,0%);fill-opacity:1;" d="M 110.117188 152.738281 L 124.273438 144.539062 C 128 150.625 132.84375 155.097656 141.414062 155.097656 C 148.617188 155.097656 153.210938 151.496094 153.210938 146.527344 C 153.210938 140.566406 148.492188 138.457031 140.542969 134.980469 L 136.199219 133.113281 C 123.65625 127.777344 115.335938 121.070312 115.335938 106.914062 C 115.335938 93.875 125.269531 83.9375 140.792969 83.9375 C 151.84375 83.9375 159.792969 87.789062 165.503906 97.847656 L 151.96875 106.539062 C 148.988281 101.199219 145.757812 99.089844 140.792969 99.089844 C 135.699219 99.089844 132.472656 102.320312 132.472656 106.539062 C 132.472656 111.757812 135.699219 113.867188 143.152344 117.097656 L 147.496094 118.960938 C 162.273438 125.292969 170.59375 131.75 170.59375 146.277344 C 170.59375 161.925781 158.300781 170.496094 141.785156 170.496094 C 125.640625 170.496094 115.210938 162.796875 110.121094 152.738281 "/>
</g>
</svg>
