<?xml version="1.0" encoding="UTF-8"?>
<svg xmlns="http://www.w3.org/2000/svg" xmlns:xlink="http://www.w3.org/1999/xlink" width="207pt" height="185pt" viewBox="0 0 207 185" version="1.1">
<g id="surface1">
<path style=" stroke:none;fill-rule:nonzero;fill:rgb(0%,84.705882%,100%);fill-opacity:1;" d="M 170.195312 59.902344 C 168.046875 59.160156 165.824219 58.457031 163.53125 57.792969 C 163.910156 56.25 164.253906 54.730469 164.5625 53.234375 C 169.605469 28.664062 166.308594 8.867188 155.046875 2.351562 C 144.246094 -3.898438 126.585938 2.617188 108.75 18.195312 C 107.035156 19.691406 105.316406 21.277344 103.597656 22.941406 C 102.449219 21.839844 101.304688 20.777344 100.164062 19.761719 C 81.472656 3.105469 62.734375 -3.914062 51.484375 2.625 C 40.695312 8.890625 37.5 27.5 42.042969 50.785156 C 42.480469 53.035156 42.992188 55.328125 43.574219 57.664062 C 40.921875 58.421875 38.359375 59.226562 35.910156 60.082031 C 13.996094 67.75 0 79.765625 0 92.230469 C 0 105.105469 15.023438 118.015625 37.851562 125.84375 C 39.652344 126.460938 41.523438 127.046875 43.449219 127.601562 C 42.824219 130.128906 42.28125 132.601562 41.824219 135.015625 C 37.492188 157.898438 40.875 176.066406 51.632812 182.292969 C 62.746094 188.726562 81.398438 182.113281 99.5625 166.183594 C 100.996094 164.921875 102.4375 163.589844 103.882812 162.1875 C 105.753906 163.996094 107.621094 165.707031 109.476562 167.3125 C 127.070312 182.503906 144.445312 188.636719 155.195312 182.390625 C 166.296875 175.941406 169.90625 156.425781 165.222656 132.679688 C 164.863281 130.867188 164.449219 129.011719 163.980469 127.128906 C 165.289062 126.738281 166.574219 126.335938 167.828125 125.921875 C 191.558594 118.03125 207 105.277344 207 92.230469 C 207 79.722656 192.550781 67.625 170.195312 59.902344 Z M 165.046875 117.496094 C 163.917969 117.875 162.753906 118.238281 161.570312 118.589844 C 158.953125 110.265625 155.417969 101.417969 151.089844 92.273438 C 155.21875 83.347656 158.617188 74.613281 161.164062 66.34375 C 163.28125 66.957031 165.335938 67.605469 167.316406 68.292969 C 186.472656 74.910156 198.15625 84.691406 198.15625 92.230469 C 198.15625 100.261719 185.539062 110.683594 165.046875 117.496094 Z M 156.546875 134.402344 C 158.617188 144.902344 158.914062 154.394531 157.542969 161.816406 C 156.308594 168.484375 153.828125 172.933594 150.765625 174.710938 C 144.242188 178.5 130.289062 173.578125 115.246094 160.585938 C 113.519531 159.09375 111.78125 157.503906 110.039062 155.820312 C 115.871094 149.421875 121.703125 141.980469 127.390625 133.714844 C 137.398438 132.824219 146.851562 131.367188 155.425781 129.378906 C 155.847656 131.085938 156.222656 132.761719 156.546875 134.402344 Z M 70.570312 174.058594 C 64.199219 176.316406 59.121094 176.382812 56.050781 174.605469 C 49.523438 170.828125 46.808594 156.238281 50.511719 136.671875 C 50.933594 134.429688 51.441406 132.128906 52.023438 129.773438 C 60.5 131.65625 69.886719 133.011719 79.917969 133.828125 C 85.644531 141.914062 91.644531 149.347656 97.6875 155.855469 C 96.367188 157.136719 95.050781 158.355469 93.742188 159.5 C 85.710938 166.546875 77.664062 171.542969 70.570312 174.058594 Z M 40.710938 117.449219 C 30.617188 113.988281 22.28125 109.488281 16.570312 104.578125 C 11.433594 100.164062 8.84375 95.785156 8.84375 92.230469 C 8.84375 84.667969 20.082031 75.019531 38.824219 68.460938 C 41.097656 67.667969 43.476562 66.917969 45.949219 66.210938 C 48.539062 74.667969 51.9375 83.507812 56.035156 92.445312 C 51.882812 101.519531 48.4375 110.5 45.820312 119.054688 C 44.058594 118.546875 42.351562 118.011719 40.710938 117.449219 Z M 50.722656 49.078125 C 46.832031 29.128906 49.414062 14.078125 55.914062 10.304688 C 62.839844 6.28125 78.152344 12.015625 94.292969 26.398438 C 95.324219 27.316406 96.363281 28.277344 97.398438 29.273438 C 91.386719 35.753906 85.441406 43.132812 79.765625 51.171875 C 70.03125 52.078125 60.710938 53.53125 52.144531 55.480469 C 51.605469 53.304688 51.128906 51.167969 50.722656 49.078125 Z M 140.011719 71.203125 C 137.964844 67.65625 135.859375 64.1875 133.714844 60.816406 C 140.320312 61.65625 146.648438 62.765625 152.589844 64.128906 C 150.808594 69.863281 148.582031 75.863281 145.964844 82.015625 C 144.089844 78.4375 142.101562 74.828125 140.011719 71.203125 Z M 103.597656 35.617188 C 107.675781 40.050781 111.761719 45 115.78125 50.371094 C 111.730469 50.179688 107.632812 50.082031 103.5 50.082031 C 99.40625 50.082031 95.339844 50.179688 91.3125 50.367188 C 95.335938 45.046875 99.457031 40.101562 103.597656 35.617188 Z M 66.953125 71.265625 C 64.90625 74.828125 62.957031 78.414062 61.109375 82.007812 C 58.535156 75.878906 56.332031 69.851562 54.53125 64.035156 C 60.4375 62.707031 66.734375 61.621094 73.296875 60.800781 C 71.125 64.203125 69.003906 67.695312 66.953125 71.265625 Z M 73.488281 124.292969 C 66.707031 123.535156 60.316406 122.503906 54.410156 121.214844 C 56.238281 115.292969 58.488281 109.136719 61.121094 102.878906 C 62.972656 106.46875 64.929688 110.058594 66.988281 113.625 C 69.085938 117.261719 71.257812 120.820312 73.488281 124.292969 Z M 103.84375 149.472656 C 99.652344 144.933594 95.472656 139.914062 91.390625 134.515625 C 95.351562 134.671875 99.394531 134.75 103.5 134.75 C 107.71875 134.75 111.890625 134.65625 115.996094 134.472656 C 111.964844 139.96875 107.894531 144.996094 103.84375 149.472656 Z M 146.050781 102.558594 C 148.816406 108.886719 151.148438 115.007812 153 120.832031 C 147 122.207031 140.519531 123.3125 133.691406 124.132812 C 135.839844 120.71875 137.960938 117.191406 140.046875 113.566406 C 142.15625 109.894531 144.15625 106.21875 146.050781 102.558594 Z M 132.386719 109.132812 C 129.152344 114.761719 125.828125 120.136719 122.457031 125.207031 C 116.3125 125.648438 109.96875 125.875 103.5 125.875 C 97.058594 125.875 90.792969 125.675781 84.757812 125.28125 C 81.25 120.144531 77.855469 114.753906 74.640625 109.179688 C 71.433594 103.621094 68.484375 98.015625 65.808594 92.445312 C 68.484375 86.855469 71.425781 81.246094 74.613281 75.699219 C 77.808594 70.136719 81.175781 64.773438 84.652344 59.664062 C 90.808594 59.199219 97.121094 58.953125 103.5 58.953125 C 109.910156 58.953125 116.230469 59.199219 122.382812 59.671875 C 125.808594 64.742188 129.148438 70.085938 132.359375 75.652344 C 135.601562 81.277344 138.585938 86.851562 141.28125 92.316406 C 138.59375 97.878906 135.617188 103.507812 132.386719 109.132812 Z M 150.628906 10.039062 C 157.558594 14.050781 160.257812 30.226562 155.902344 51.441406 C 155.625 52.796875 155.308594 54.175781 154.96875 55.570312 C 146.382812 53.582031 137.058594 52.101562 127.292969 51.183594 C 121.605469 43.054688 115.710938 35.667969 109.792969 29.269531 C 111.386719 27.734375 112.972656 26.269531 114.554688 24.886719 C 129.835938 11.542969 144.121094 6.273438 150.628906 10.039062 Z M 103.5 73.683594 C 113.707031 73.683594 121.984375 81.984375 121.984375 92.230469 C 121.984375 102.472656 113.707031 110.777344 103.5 110.777344 C 93.292969 110.777344 85.015625 102.472656 85.015625 92.230469 C 85.015625 81.984375 93.292969 73.683594 103.5 73.683594 Z M 103.5 73.683594 "/>
</g>
</svg>
