<?xml version="1.0" encoding="UTF-8"?>
<svg xmlns="http://www.w3.org/2000/svg" xmlns:xlink="http://www.w3.org/1999/xlink" width="350pt" height="185pt" viewBox="0 0 350 185" version="1.1">
<defs>
<radialGradient id="radial0" gradientUnits="userSpaceOnUse" cx="0.8366" cy="-125.811" fx="0.8366" fy="-125.811" r="363.0565" gradientTransform="matrix(0.633008,0,0,0.634481,104.541172,112.258274)">
<stop offset="0" style="stop-color:rgb(100%,100%,100%);stop-opacity:1;"/>
<stop offset="0.5" style="stop-color:rgb(29.803922%,41.960784%,59.215686%);stop-opacity:1;"/>
<stop offset="1" style="stop-color:rgb(13.72549%,12.156863%,12.54902%);stop-opacity:1;"/>
</radialGradient>
</defs>
<g id="surface1">
<path style=" stroke:none;fill-rule:nonzero;fill:url(#radial0);" d="M 350 92.226562 C 350 41.289062 271.648438 0 175 0 C 78.351562 0 0 41.289062 0 92.226562 C 0 143.160156 78.351562 184.453125 175 184.453125 C 271.648438 184.453125 350 143.160156 350 92.226562 Z M 350 92.226562 "/>
<path style=" stroke:none;fill-rule:nonzero;fill:rgb(38.039216%,50.588235%,71.372549%);fill-opacity:1;" d="M 343.164062 92.226562 C 343.164062 45.074219 267.875 6.851562 175 6.851562 C 82.125 6.851562 6.835938 45.074219 6.835938 92.226562 C 6.835938 139.375 82.125 177.601562 175 177.601562 C 267.875 177.601562 343.164062 139.375 343.164062 92.226562 Z M 343.164062 92.226562 "/>
<path style=" stroke:none;fill-rule:nonzero;fill:rgb(100%,100%,100%);fill-opacity:1;" d="M 209.042969 119.90625 C 209.042969 119.90625 217.382812 76.878906 217.382812 76.878906 C 219.296875 67.148438 217.65625 59.886719 212.734375 55.363281 C 207.949219 50.976562 199.746094 48.785156 187.714844 48.785156 L 173.222656 48.785156 L 177.324219 27.40625 C 177.460938 26.585938 177.324219 25.761719 176.777344 25.078125 C 176.230469 24.394531 175.546875 24.117188 174.726562 24.117188 L 154.765625 24.117188 C 153.398438 24.117188 152.304688 25.078125 152.03125 26.3125 L 143.144531 71.945312 C 142.324219 66.738281 140.410156 62.351562 137.128906 58.789062 C 131.25 52.074219 122.089844 48.648438 109.648438 48.648438 L 71.230469 48.648438 C 69.863281 48.648438 68.769531 49.605469 68.496094 50.839844 L 50.585938 143.476562 C 50.449219 144.300781 50.585938 145.121094 51.132812 145.808594 C 51.679688 146.492188 52.363281 146.765625 53.183594 146.765625 L 73.28125 146.765625 C 74.648438 146.765625 75.742188 145.808594 76.015625 144.574219 L 80.390625 122.238281 L 95.292969 122.238281 C 103.085938 122.238281 109.785156 121.414062 114.84375 119.769531 C 120.175781 117.988281 124.960938 115.109375 129.199219 111.136719 C 132.617188 107.984375 135.488281 104.421875 137.675781 100.585938 L 134.121094 119.085938 C 133.984375 119.90625 134.121094 120.730469 134.667969 121.414062 C 135.214844 122.101562 135.898438 122.375 136.71875 122.375 L 156.679688 122.375 C 158.046875 122.375 159.140625 121.414062 159.414062 120.179688 L 169.257812 69.476562 L 182.929688 69.476562 C 188.808594 69.476562 190.449219 70.574219 190.996094 71.121094 C 191.40625 71.535156 192.226562 73.179688 191.269531 78.25 L 183.339844 119.222656 C 183.203125 120.042969 183.339844 120.867188 183.886719 121.550781 C 184.433594 122.238281 185.117188 122.511719 185.9375 122.511719 L 206.445312 122.511719 C 207.675781 122.101562 208.769531 121.140625 209.042969 119.90625 Z M 116.621094 84.277344 C 115.390625 90.71875 113.066406 95.378906 109.648438 97.980469 C 106.230469 100.585938 100.625 101.957031 93.242188 101.957031 L 84.355469 101.957031 L 90.78125 68.792969 L 102.265625 68.792969 C 110.742188 68.792969 114.160156 70.574219 115.527344 72.082031 C 117.304688 74.273438 117.714844 78.523438 116.621094 84.277344 Z M 116.621094 84.277344 "/>
<path style=" stroke:none;fill-rule:nonzero;fill:rgb(100%,100%,100%);fill-opacity:1;" d="M 294.355469 58.789062 C 288.476562 52.074219 279.316406 48.648438 266.875 48.648438 L 228.183594 48.648438 C 226.816406 48.648438 225.722656 49.605469 225.449219 50.839844 L 207.539062 143.339844 C 207.402344 144.164062 207.539062 144.984375 208.085938 145.671875 C 208.632812 146.355469 209.316406 146.628906 210.136719 146.628906 L 230.234375 146.628906 C 231.601562 146.628906 232.695312 145.671875 232.96875 144.4375 L 237.34375 122.101562 L 252.246094 122.101562 C 260.039062 122.101562 266.738281 121.277344 271.796875 119.632812 C 277.128906 117.851562 281.914062 114.972656 286.152344 111 C 289.707031 107.710938 292.714844 104.011719 294.902344 100.035156 C 297.089844 96.0625 298.730469 91.679688 299.6875 86.882812 C 302.011719 74.960938 300.234375 65.640625 294.355469 58.789062 Z M 273.4375 84.277344 C 272.207031 90.71875 269.882812 95.378906 266.464844 97.980469 C 263.046875 100.585938 257.441406 101.957031 250.058594 101.957031 L 241.171875 101.957031 L 247.597656 68.792969 L 259.082031 68.792969 C 267.558594 68.792969 270.976562 70.574219 272.34375 72.082031 C 274.257812 74.273438 274.667969 78.523438 273.4375 84.277344 Z M 273.4375 84.277344 "/>
<path style=" stroke:none;fill-rule:nonzero;fill:rgb(0%,0%,1.568627%);fill-opacity:1;" d="M 102.265625 66.050781 C 109.921875 66.050781 114.980469 67.421875 117.578125 70.300781 C 120.175781 73.179688 120.722656 77.972656 119.355469 84.824219 C 117.988281 91.953125 115.253906 97.160156 111.289062 100.175781 C 107.324219 103.1875 101.308594 104.695312 93.242188 104.695312 L 81.074219 104.695312 L 88.59375 66.050781 Z M 53.320312 143.890625 L 73.417969 143.890625 L 78.203125 119.359375 L 95.429688 119.359375 C 103.085938 119.359375 109.238281 118.535156 114.160156 116.894531 C 119.082031 115.25 123.457031 112.644531 127.558594 108.808594 C 130.976562 105.65625 133.710938 102.230469 135.761719 98.53125 C 137.8125 94.828125 139.316406 90.71875 140.136719 86.195312 C 142.324219 75.234375 140.683594 66.738281 135.351562 60.570312 C 130.019531 54.402344 121.542969 51.390625 109.921875 51.390625 L 71.230469 51.390625 Z M 53.320312 143.890625 "/>
<path style=" stroke:none;fill-rule:nonzero;fill:rgb(0%,0%,1.568627%);fill-opacity:1;" d="M 154.902344 26.859375 L 174.863281 26.859375 L 170.078125 51.390625 L 187.851562 51.390625 C 199.0625 51.390625 206.71875 53.308594 210.957031 57.28125 C 215.195312 61.253906 216.425781 67.558594 214.785156 76.328125 L 206.445312 119.359375 L 186.210938 119.359375 L 194.140625 78.386719 C 195.097656 73.726562 194.6875 70.574219 193.183594 68.929688 C 191.679688 67.285156 188.261719 66.324219 183.203125 66.324219 L 167.207031 66.324219 L 156.953125 119.359375 L 136.992188 119.359375 Z M 154.902344 26.859375 "/>
<path style=" stroke:none;fill-rule:nonzero;fill:rgb(0%,0%,1.568627%);fill-opacity:1;" d="M 259.082031 66.050781 C 266.738281 66.050781 271.796875 67.421875 274.394531 70.300781 C 276.992188 73.179688 277.539062 77.972656 276.171875 84.824219 C 274.804688 91.953125 272.070312 97.160156 268.105469 100.175781 C 264.140625 103.1875 258.125 104.695312 250.058594 104.695312 L 237.890625 104.695312 L 245.410156 66.050781 Z M 210.136719 143.890625 L 230.234375 143.890625 L 235.019531 119.359375 L 252.246094 119.359375 C 259.902344 119.359375 266.054688 118.535156 270.976562 116.894531 C 275.898438 115.25 280.273438 112.644531 284.375 108.808594 C 287.792969 105.65625 290.527344 102.230469 292.578125 98.53125 C 294.628906 94.828125 296.132812 90.71875 296.953125 86.195312 C 299.140625 75.234375 297.5 66.738281 292.167969 60.570312 C 286.835938 54.402344 278.359375 51.390625 266.738281 51.390625 L 228.046875 51.390625 Z M 210.136719 143.890625 "/>
</g>
</svg>
