<svg xmlns="http://www.w3.org/2000/svg" width="155.972" height="200" viewBox="0 0 155.972 200"><defs><style>.a{fill:#000023;}</style></defs><g transform="translate(-13.111 -258.718)"><path class="a" d="M26.245,258.718a13.232,13.232,0,0,0-13.134,13.146v173.72a13.222,13.222,0,0,0,13.134,13.134h129.7a13.222,13.222,0,0,0,13.134-13.134V271.864a13.232,13.232,0,0,0-13.134-13.146Zm0,10.83h129.7a2.2,2.2,0,0,1,2.316,2.316v173.72a2.2,2.2,0,0,1-2.316,2.316H26.245a2.2,2.2,0,0,1-2.316-2.316V271.864A2.2,2.2,0,0,1,26.245,269.548ZM50.131,312.87v6.183h81.932V312.87Zm0,33.494v6.183h81.932v-6.183Zm0,33.5v6.183h53.333v-6.183Z" transform="translate(0 0)"/></g></svg>