<?xml version="1.0" encoding="UTF-8"?>
<svg xmlns="http://www.w3.org/2000/svg" xmlns:xlink="http://www.w3.org/1999/xlink" width="185pt" height="185pt" viewBox="0 0 185 185" version="1.1">
<defs>
<linearGradient id="linear0" gradientUnits="userSpaceOnUse" x1="0.129594" y1="0.120394" x2="0.796388" y2="0.782009" gradientTransform="matrix(136.789062,0,0,137.695312,0.105469,0.0507812)">
<stop offset="0" style="stop-color:rgb(21.960784%,49.411765%,72.156863%);stop-opacity:1;"/>
<stop offset="1" style="stop-color:rgb(21.176471%,41.176471%,58.039216%);stop-opacity:1;"/>
</linearGradient>
<linearGradient id="linear1" gradientUnits="userSpaceOnUse" x1="0.191275" y1="0.205792" x2="0.907415" y2="0.88429" gradientTransform="matrix(136.792969,0,0,137.695312,47.867188,46.671875)">
<stop offset="0" style="stop-color:rgb(100%,87.843137%,32.156863%);stop-opacity:1;"/>
<stop offset="1" style="stop-color:rgb(100%,76.470588%,19.215686%);stop-opacity:1;"/>
</linearGradient>
</defs>
<g id="surface1">
<path style=" stroke:none;fill-rule:nonzero;fill:url(#linear0);" d="M 91.714844 0.0507812 C 44.863281 0.0507812 47.789062 20.449219 47.789062 20.449219 L 47.84375 41.582031 L 92.550781 41.582031 L 92.550781 47.925781 L 30.085938 47.925781 C 30.085938 47.925781 0.105469 44.511719 0.105469 91.972656 C 0.105469 139.429688 26.273438 137.746094 26.273438 137.746094 L 41.890625 137.746094 L 41.890625 115.722656 C 41.890625 115.722656 41.046875 89.453125 67.636719 89.453125 L 111.980469 89.453125 C 111.980469 89.453125 136.894531 89.859375 136.894531 65.28125 L 136.894531 24.644531 C 136.894531 24.644531 140.679688 0.0507812 91.714844 0.0507812 Z M 67.0625 14.261719 C 71.511719 14.261719 75.105469 17.871094 75.105469 22.335938 C 75.105469 26.804688 71.511719 30.414062 67.0625 30.414062 C 62.617188 30.414062 59.019531 26.804688 59.019531 22.335938 C 59.019531 17.871094 62.617188 14.261719 67.0625 14.261719 Z M 67.0625 14.261719 "/>
<path style=" stroke:none;fill-rule:nonzero;fill:url(#linear1);" d="M 93.046875 184.367188 C 139.898438 184.367188 136.972656 163.96875 136.972656 163.96875 L 136.921875 142.835938 L 92.210938 142.835938 L 92.210938 136.492188 L 154.679688 136.492188 C 154.679688 136.492188 184.660156 139.90625 184.660156 92.445312 C 184.660156 44.988281 158.492188 46.671875 158.492188 46.671875 L 142.875 46.671875 L 142.875 68.695312 C 142.875 68.695312 143.714844 94.964844 117.125 94.964844 L 72.78125 94.964844 C 72.78125 94.964844 47.867188 94.558594 47.867188 119.136719 L 47.867188 159.773438 C 47.867188 159.773438 44.085938 184.367188 93.046875 184.367188 Z M 117.699219 170.15625 C 113.25 170.15625 109.65625 166.546875 109.65625 162.082031 C 109.65625 157.617188 113.25 154.007812 117.699219 154.007812 C 122.148438 154.007812 125.742188 157.617188 125.742188 162.082031 C 125.742188 166.546875 122.148438 170.15625 117.699219 170.15625 Z M 117.699219 170.15625 "/>
</g>
</svg>
