<?xml version="1.0" encoding="UTF-8"?>
<svg xmlns="http://www.w3.org/2000/svg" xmlns:xlink="http://www.w3.org/1999/xlink" width="185pt" height="185pt" viewBox="0 0 185 185" version="1.1">
<g id="surface1">
<path style=" stroke:none;fill-rule:nonzero;fill:rgb(0%,0%,0%);fill-opacity:1;" d="M 183.734375 90.230469 L 175.96875 85.425781 C 175.902344 84.667969 175.828125 83.914062 175.75 83.160156 L 182.421875 76.9375 C 183.101562 76.304688 183.40625 75.367188 183.222656 74.460938 C 183.042969 73.550781 182.40625 72.800781 181.539062 72.476562 L 173.003906 69.285156 C 172.792969 68.546875 172.566406 67.8125 172.335938 67.085938 L 177.660156 59.691406 C 178.203125 58.941406 178.3125 57.964844 177.960938 57.105469 C 177.605469 56.253906 176.832031 55.640625 175.921875 55.492188 L 166.921875 54.027344 C 166.574219 53.34375 166.210938 52.671875 165.839844 52.007812 L 169.621094 43.707031 C 170.007812 42.863281 169.929688 41.878906 169.414062 41.113281 C 168.898438 40.34375 168.027344 39.890625 167.097656 39.925781 L 157.96875 40.246094 C 157.496094 39.65625 157.015625 39.070312 156.523438 38.496094 L 158.621094 29.601562 C 158.835938 28.699219 158.566406 27.753906 157.910156 27.097656 C 157.257812 26.441406 156.3125 26.171875 155.40625 26.382812 L 146.515625 28.480469 C 145.9375 27.992188 145.355469 27.511719 144.761719 27.039062 L 145.082031 17.90625 C 145.117188 16.984375 144.667969 16.105469 143.894531 15.589844 C 143.121094 15.074219 142.144531 14.996094 141.300781 15.382812 L 133.003906 19.164062 C 132.335938 18.796875 131.664062 18.433594 130.984375 18.082031 L 129.519531 9.082031 C 129.371094 8.167969 128.757812 7.394531 127.902344 7.042969 C 127.046875 6.6875 126.070312 6.800781 125.316406 7.34375 L 117.921875 12.664062 C 117.191406 12.433594 116.460938 12.210938 115.722656 12 L 112.53125 3.464844 C 112.207031 2.59375 111.457031 1.957031 110.546875 1.777344 C 109.640625 1.597656 108.703125 1.898438 108.074219 2.574219 L 101.847656 9.253906 C 101.097656 9.171875 100.339844 9.097656 99.585938 9.035156 L 94.777344 1.265625 C 94.292969 0.480469 93.429688 0 92.503906 0 C 91.578125 0 90.71875 0.480469 90.234375 1.265625 L 85.425781 9.035156 C 84.667969 9.097656 83.914062 9.171875 83.160156 9.253906 L 76.933594 2.574219 C 76.304688 1.898438 75.367188 1.597656 74.460938 1.777344 C 73.550781 1.957031 72.800781 2.59375 72.476562 3.464844 L 69.285156 12 C 68.546875 12.210938 67.816406 12.433594 67.085938 12.664062 L 59.691406 7.34375 C 58.9375 6.800781 57.960938 6.683594 57.105469 7.042969 C 56.25 7.394531 55.636719 8.167969 55.488281 9.082031 L 54.023438 18.082031 C 53.34375 18.433594 52.671875 18.792969 52 19.164062 L 43.703125 15.382812 C 42.863281 14.996094 41.878906 15.074219 41.113281 15.589844 C 40.339844 16.105469 39.890625 16.984375 39.925781 17.90625 L 40.242188 27.039062 C 39.652344 27.511719 39.070312 27.992188 38.492188 28.480469 L 29.597656 26.382812 C 28.695312 26.175781 27.746094 26.441406 27.09375 27.097656 C 26.4375 27.753906 26.167969 28.699219 26.378906 29.601562 L 28.476562 38.496094 C 27.988281 39.070312 27.507812 39.65625 27.035156 40.246094 L 17.90625 39.925781 C 16.984375 39.902344 16.105469 40.34375 15.589844 41.113281 C 15.074219 41.878906 14.996094 42.863281 15.378906 43.707031 L 19.164062 52.007812 C 18.792969 52.671875 18.429688 53.34375 18.078125 54.027344 L 9.082031 55.492188 C 8.167969 55.640625 7.398438 56.25 7.042969 57.105469 C 6.6875 57.964844 6.804688 58.941406 7.34375 59.691406 L 12.664062 67.085938 C 12.433594 67.8125 12.207031 68.546875 11.996094 69.285156 L 3.460938 72.476562 C 2.597656 72.800781 1.957031 73.550781 1.777344 74.460938 C 1.597656 75.367188 1.898438 76.304688 2.578125 76.9375 L 9.253906 83.160156 C 9.171875 83.914062 9.097656 84.667969 9.03125 85.425781 L 1.265625 90.230469 C 0.480469 90.71875 0 91.578125 0 92.503906 C 0 93.433594 0.480469 94.292969 1.265625 94.777344 L 9.03125 99.585938 C 9.097656 100.339844 9.171875 101.09375 9.253906 101.847656 L 2.578125 108.074219 C 1.898438 108.703125 1.597656 109.640625 1.777344 110.546875 C 1.957031 111.457031 2.597656 112.207031 3.460938 112.53125 L 11.996094 115.722656 C 12.207031 116.460938 12.433594 117.195312 12.664062 117.925781 L 7.34375 125.316406 C 6.800781 126.070312 6.6875 127.046875 7.042969 127.902344 C 7.398438 128.757812 8.167969 129.371094 9.082031 129.519531 L 18.078125 130.980469 C 18.429688 131.664062 18.789062 132.335938 19.164062 133.003906 L 15.378906 141.300781 C 14.996094 142.144531 15.074219 143.125 15.589844 143.894531 C 16.105469 144.667969 16.984375 145.117188 17.90625 145.082031 L 27.03125 144.761719 C 27.507812 145.355469 27.988281 145.9375 28.476562 146.515625 L 26.378906 155.410156 C 26.167969 156.3125 26.4375 157.253906 27.09375 157.910156 C 27.746094 158.570312 28.695312 158.832031 29.597656 158.621094 L 38.492188 156.527344 C 39.070312 157.019531 39.652344 157.496094 40.242188 157.964844 L 39.925781 167.097656 C 39.890625 168.023438 40.339844 168.898438 41.113281 169.414062 C 41.878906 169.929688 42.863281 170.007812 43.703125 169.621094 L 52 165.839844 C 52.667969 166.210938 53.339844 166.574219 54.023438 166.925781 L 55.488281 175.917969 C 55.636719 176.832031 56.25 177.609375 57.105469 177.960938 C 57.957031 178.316406 58.9375 178.199219 59.691406 177.660156 L 67.082031 172.335938 C 67.8125 172.566406 68.546875 172.792969 69.285156 173.003906 L 72.476562 181.535156 C 72.796875 182.402344 73.546875 183.042969 74.457031 183.21875 C 75.367188 183.402344 76.300781 183.101562 76.933594 182.421875 L 83.160156 175.746094 C 83.910156 175.832031 84.667969 175.902344 85.425781 175.972656 L 90.230469 183.738281 C 90.714844 184.519531 91.578125 185.003906 92.503906 185.003906 C 93.429688 185.003906 94.289062 184.523438 94.777344 183.738281 L 99.585938 175.972656 C 100.339844 175.902344 101.09375 175.832031 101.847656 175.746094 L 108.070312 182.421875 C 108.703125 183.101562 109.640625 183.402344 110.546875 183.21875 C 111.457031 183.042969 112.207031 182.402344 112.53125 181.535156 L 115.71875 173.003906 C 116.460938 172.792969 117.191406 172.566406 117.921875 172.335938 L 125.316406 177.660156 C 126.066406 178.199219 127.046875 178.316406 127.902344 177.960938 C 128.757812 177.609375 129.367188 176.832031 129.515625 175.917969 L 130.984375 166.925781 C 131.660156 166.574219 132.332031 166.207031 133.003906 165.839844 L 141.300781 169.621094 C 142.144531 170.007812 143.125 169.929688 143.894531 169.414062 C 144.664062 168.898438 145.113281 168.023438 145.078125 167.097656 L 144.761719 157.964844 C 145.351562 157.492188 145.9375 157.019531 146.511719 156.527344 L 155.40625 158.621094 C 156.308594 158.832031 157.257812 158.570312 157.910156 157.910156 C 158.566406 157.253906 158.832031 156.3125 158.621094 155.410156 L 156.527344 146.515625 C 157.015625 145.9375 157.496094 145.355469 157.964844 144.761719 L 167.097656 145.082031 C 168.015625 145.117188 168.898438 144.667969 169.410156 143.894531 C 169.929688 143.125 170.007812 142.144531 169.621094 141.300781 L 165.839844 133.003906 C 166.210938 132.335938 166.570312 131.664062 166.921875 130.980469 L 175.917969 129.519531 C 176.832031 129.371094 177.605469 128.757812 177.957031 127.902344 C 178.3125 127.046875 178.199219 126.070312 177.65625 125.316406 L 172.335938 117.925781 C 172.566406 117.195312 172.789062 116.460938 173.003906 115.722656 L 181.535156 112.53125 C 182.402344 112.207031 183.042969 111.457031 183.21875 110.546875 C 183.402344 109.640625 183.101562 108.703125 182.421875 108.074219 L 175.746094 101.847656 C 175.828125 101.09375 175.902344 100.339844 175.96875 99.585938 L 183.734375 94.777344 C 184.519531 94.292969 185 93.429688 185 92.503906 C 185 91.578125 184.523438 90.71875 183.734375 90.230469 Z M 131.753906 154.660156 C 128.789062 154.023438 126.902344 151.097656 127.539062 148.125 C 128.171875 145.152344 131.09375 143.261719 134.058594 143.902344 C 137.023438 144.535156 138.914062 147.464844 138.277344 150.433594 C 137.640625 153.402344 134.71875 155.296875 131.753906 154.660156 Z M 129.113281 136.8125 C 126.410156 136.234375 123.746094 137.953125 123.167969 140.667969 L 120.410156 153.535156 C 111.902344 157.394531 102.453125 159.542969 92.5 159.542969 C 82.320312 159.542969 72.667969 157.289062 64.003906 153.261719 L 61.25 140.394531 C 60.667969 137.6875 58.007812 135.960938 55.304688 136.542969 L 43.941406 138.984375 C 41.835938 136.8125 39.871094 134.5 38.070312 132.058594 L 93.34375 132.058594 C 93.96875 132.058594 94.386719 131.945312 94.386719 131.378906 L 94.386719 111.824219 C 94.386719 111.253906 93.96875 111.140625 93.34375 111.140625 L 77.179688 111.140625 L 77.179688 98.75 L 94.664062 98.75 C 96.257812 98.75 103.199219 99.203125 105.414062 108.070312 C 106.109375 110.800781 107.636719 119.671875 108.679688 122.511719 C 109.71875 125.695312 113.949219 132.058594 118.457031 132.058594 L 146.003906 132.058594 C 146.316406 132.058594 146.648438 132.023438 147 131.960938 C 145.089844 134.558594 142.992188 137.015625 140.738281 139.308594 Z M 52.664062 154.394531 C 49.699219 155.03125 46.777344 153.140625 46.140625 150.171875 C 45.503906 147.195312 47.390625 144.273438 50.359375 143.632812 C 53.324219 142.996094 56.246094 144.890625 56.882812 147.859375 C 57.515625 150.828125 55.628906 153.757812 52.664062 154.394531 Z M 31.695312 69.363281 C 32.925781 72.140625 31.675781 75.394531 28.902344 76.625 C 26.128906 77.855469 22.882812 76.601562 21.652344 73.824219 C 20.421875 71.046875 21.675781 67.796875 24.445312 66.566406 C 27.222656 65.335938 30.464844 66.585938 31.695312 69.363281 Z M 25.25 84.640625 L 37.085938 79.382812 C 39.613281 78.261719 40.753906 75.296875 39.632812 72.765625 L 37.195312 67.253906 L 46.78125 67.253906 L 46.78125 110.460938 L 27.441406 110.460938 C 25.765625 104.5625 24.863281 98.339844 24.863281 91.90625 C 24.863281 89.453125 24.996094 87.027344 25.25 84.640625 Z M 77.183594 80.445312 L 77.183594 67.710938 L 100.007812 67.710938 C 101.1875 67.710938 108.332031 69.074219 108.332031 74.417969 C 108.332031 78.851562 102.851562 80.445312 98.34375 80.445312 Z M 160.136719 91.90625 C 160.136719 93.597656 160.074219 95.269531 159.953125 96.929688 L 153.011719 96.929688 C 152.316406 96.929688 152.039062 97.386719 152.039062 98.066406 L 152.039062 101.253906 C 152.039062 108.753906 147.808594 110.386719 144.101562 110.800781 C 140.574219 111.199219 136.660156 109.324219 136.175781 107.164062 C 134.09375 95.453125 130.625 92.949219 125.144531 88.628906 C 131.945312 84.3125 139.019531 77.941406 139.019531 69.414062 C 139.019531 60.207031 132.707031 54.40625 128.40625 51.5625 C 122.371094 47.585938 115.6875 46.789062 113.882812 46.789062 L 42.117188 46.789062 C 51.847656 35.925781 65.039062 28.230469 79.957031 25.433594 L 88.414062 34.304688 C 90.328125 36.308594 93.496094 36.382812 95.496094 34.46875 L 104.960938 25.414062 C 124.796875 29.109375 141.585938 41.453125 151.265625 58.394531 L 144.785156 73.027344 C 143.664062 75.5625 144.808594 78.523438 147.332031 79.644531 L 159.808594 85.1875 C 160.023438 87.402344 160.136719 89.640625 160.136719 91.90625 Z M 88.417969 17.882812 C 90.609375 15.78125 94.085938 15.867188 96.183594 18.0625 C 98.28125 20.261719 98.199219 23.742188 96.003906 25.839844 C 93.8125 27.941406 90.335938 27.859375 88.238281 25.660156 C 86.144531 23.460938 86.222656 19.980469 88.417969 17.882812 Z M 152.722656 69.632812 C 153.949219 66.855469 157.195312 65.601562 159.96875 66.832031 C 162.742188 68.0625 163.996094 71.316406 162.765625 74.09375 C 161.535156 76.871094 158.289062 78.125 155.515625 76.890625 C 152.746094 75.664062 151.492188 72.410156 152.722656 69.632812 Z M 152.722656 69.632812 "/>
</g>
</svg>
