<?xml version="1.0" encoding="UTF-8"?>
<svg xmlns="http://www.w3.org/2000/svg" xmlns:xlink="http://www.w3.org/1999/xlink" width="185pt" height="185pt" viewBox="0 0 185 185" version="1.1">
<g id="surface1">
<path style=" stroke:none;fill-rule:nonzero;fill:rgb(29.411765%,29.411765%,29.411765%);fill-opacity:1;" d="M 166.207031 29.722656 C 164.105469 24.886719 160.476562 20.722656 155.871094 17.128906 C 148.941406 11.746094 139.699219 7.546875 128.886719 4.59375 C 118.078125 1.652344 105.6875 0 92.5 0 C 72.402344 0.0117188 54.171875 3.8125 40.523438 10.253906 C 33.699219 13.488281 27.988281 17.390625 23.789062 22.074219 C 21.699219 24.414062 19.988281 26.964844 18.792969 29.722656 C 17.597656 32.480469 16.933594 35.457031 16.9375 38.5 L 16.9375 146.496094 C 16.933594 149.539062 17.597656 152.519531 18.792969 155.273438 C 20.894531 160.109375 24.527344 164.277344 29.128906 167.871094 C 36.058594 173.253906 45.300781 177.453125 56.113281 180.40625 C 66.921875 183.347656 79.3125 184.996094 92.5 185 C 112.601562 184.984375 130.824219 181.1875 144.476562 174.746094 C 151.300781 171.507812 157.011719 167.609375 161.210938 162.925781 C 163.300781 160.585938 165.011719 158.035156 166.207031 155.273438 C 167.402344 152.519531 168.066406 149.539062 168.0625 146.496094 L 168.0625 38.5 C 168.066406 35.457031 167.402344 32.480469 166.207031 29.722656 Z M 157.640625 146.496094 C 157.636719 148.046875 157.320312 149.558594 156.640625 151.136719 C 155.460938 153.882812 153.082031 156.835938 149.464844 159.644531 C 144.054688 163.871094 135.960938 167.6875 126.148438 170.347656 C 116.335938 173.019531 104.8125 174.582031 92.5 174.578125 C 73.742188 174.59375 56.792969 170.933594 44.984375 165.324219 C 39.074219 162.539062 34.480469 159.265625 31.5625 155.980469 C 30.09375 154.339844 29.039062 152.707031 28.359375 151.136719 C 27.679688 149.558594 27.363281 148.046875 27.359375 146.496094 L 27.359375 128.660156 C 33.386719 134.171875 41.851562 138.574219 51.976562 141.828125 C 63.648438 145.554688 77.554688 147.695312 92.5 147.699219 C 112.429688 147.691406 130.5 143.910156 143.917969 137.574219 C 149.3125 135.015625 153.925781 132.019531 157.640625 128.613281 Z M 157.640625 116.058594 C 156.898438 117.648438 155.839844 119.242188 154.410156 120.851562 C 149.792969 126.054688 141.433594 130.949219 130.644531 134.382812 C 119.863281 137.832031 106.695312 139.882812 92.5 139.882812 C 73.578125 139.890625 56.464844 136.21875 44.425781 130.503906 C 38.402344 127.660156 33.671875 124.3125 30.589844 120.851562 C 29.160156 119.242188 28.101562 117.648438 27.359375 116.0625 L 27.359375 92.664062 C 33.386719 98.175781 41.851562 102.574219 51.976562 105.828125 C 63.648438 109.554688 77.554688 111.695312 92.5 111.699219 C 112.429688 111.6875 130.5 107.910156 143.917969 101.570312 C 149.3125 99.011719 153.925781 96.023438 157.640625 92.613281 Z M 157.640625 80.058594 C 156.898438 81.652344 155.839844 83.246094 154.410156 84.851562 C 149.792969 90.054688 141.433594 94.953125 130.644531 98.378906 C 119.863281 101.832031 106.695312 103.882812 92.5 103.878906 C 73.578125 103.890625 56.464844 100.21875 44.425781 94.507812 C 38.402344 91.664062 33.671875 88.3125 30.589844 84.851562 C 29.160156 83.246094 28.101562 81.652344 27.359375 80.058594 L 27.359375 56.664062 C 33.386719 62.175781 41.851562 66.574219 51.976562 69.832031 C 63.648438 73.558594 77.554688 75.699219 92.5 75.699219 C 112.429688 75.691406 130.5 71.914062 143.917969 65.574219 C 149.3125 63.015625 153.925781 60.023438 157.640625 56.617188 Z M 157.640625 44.058594 C 156.898438 45.648438 155.839844 47.246094 154.410156 48.855469 C 149.792969 54.058594 141.433594 58.957031 130.644531 62.386719 C 119.863281 65.835938 106.695312 67.890625 92.5 67.886719 C 73.578125 67.894531 56.464844 64.222656 44.425781 58.511719 C 38.402344 55.664062 33.671875 52.3125 30.589844 48.855469 C 29.160156 47.246094 28.101562 45.648438 27.359375 44.0625 L 27.359375 38.5 C 27.363281 36.949219 27.679688 35.441406 28.359375 33.863281 C 29.539062 31.113281 31.917969 28.164062 35.535156 25.351562 C 40.945312 21.125 49.039062 17.308594 58.851562 14.652344 C 68.664062 11.976562 80.1875 10.417969 92.5 10.421875 C 111.257812 10.40625 128.207031 14.066406 140.015625 19.675781 C 145.925781 22.460938 150.515625 25.734375 153.4375 29.019531 C 154.90625 30.660156 155.960938 32.289062 156.640625 33.863281 C 157.320312 35.441406 157.636719 36.949219 157.640625 38.5 Z M 157.640625 44.058594 "/>
</g>
</svg>
