<?xml version="1.0" encoding="UTF-8"?>
<svg xmlns="http://www.w3.org/2000/svg" xmlns:xlink="http://www.w3.org/1999/xlink" width="185pt" height="185pt" viewBox="0 0 185 185" version="1.1">
<defs>
<linearGradient id="linear0" gradientUnits="userSpaceOnUse" x1="-1845.5007" y1="1255.6392" x2="-1797.1339" y2="981.3379" gradientTransform="matrix(-0.722656,0,0,-0.722656,-1223.609295,900.794195)">
<stop offset="0" style="stop-color:rgb(98.039216%,68.235294%,25.882353%);stop-opacity:1;"/>
<stop offset="1" style="stop-color:rgb(93.72549%,24.313725%,19.215686%);stop-opacity:1;"/>
</linearGradient>
<linearGradient id="linear1" gradientUnits="userSpaceOnUse" x1="130.6117" y1="4.1363" x2="95.213" y2="204.8927" gradientTransform="matrix(0.722656,0,0,0.722656,0,0)">
<stop offset="0" style="stop-color:rgb(89.019608%,62.352941%,22.745098%);stop-opacity:1;"/>
<stop offset="1" style="stop-color:rgb(82.745098%,22.352941%,16.078431%);stop-opacity:1;"/>
</linearGradient>
</defs>
<g id="surface1">
<path style=" stroke:none;fill-rule:nonzero;fill:url(#linear0);" d="M 41.117188 0 C 42.203125 0 141.785156 0 143.59375 0 C 148.578125 0 153.421875 0.796875 158.117188 2.457031 C 164.910156 4.914062 171.054688 9.25 175.679688 14.886719 C 180.375 20.523438 183.484375 27.460938 184.566406 34.6875 C 185 37.359375 185.074219 40.035156 185.074219 42.710938 C 185.074219 45.164062 185.074219 131.742188 185.074219 135.640625 C 185.074219 137.953125 185.074219 140.339844 185.074219 142.652344 C 185.074219 145.832031 184.929688 149.085938 184.277344 152.191406 C 182.832031 159.34375 179.4375 166.066406 174.523438 171.484375 C 169.679688 176.90625 163.320312 180.953125 156.457031 183.121094 C 152.265625 184.421875 147.929688 185 143.519531 185 C 141.570312 185 40.832031 185 39.3125 184.925781 C 31.941406 184.566406 24.644531 182.179688 18.5 178.0625 C 12.503906 174.015625 7.589844 168.378906 4.410156 161.875 C 1.664062 156.308594 0.289062 150.09375 0.289062 143.878906 C 0.289062 142.433594 0.289062 42.5625 0.289062 41.117188 C 0.144531 34.976562 1.445312 28.90625 4.117188 23.414062 C 7.226562 16.910156 12.070312 11.203125 18.066406 7.152344 C 24.210938 2.960938 31.4375 0.503906 38.804688 0.144531 C 39.53125 0 40.324219 0 41.117188 0 Z M 41.117188 0 "/>
<path style=" stroke:none;fill-rule:nonzero;fill:url(#linear1);" d="M 156.09375 151.324219 C 155.445312 150.3125 154.71875 149.300781 153.925781 148.359375 C 152.117188 146.195312 150.023438 144.3125 147.710938 142.726562 C 144.820312 140.773438 141.421875 139.546875 137.953125 139.398438 C 135.5 139.257812 133.039062 139.6875 130.726562 140.554688 C 128.414062 141.351562 126.175781 142.507812 124.007812 143.664062 C 121.476562 144.964844 118.949219 146.265625 116.273438 147.351562 C 113.09375 148.648438 109.773438 149.664062 106.375 150.382812 C 102.113281 151.179688 97.777344 151.46875 93.511719 151.398438 C 85.78125 151.25 78.046875 150.09375 70.675781 147.929688 C 64.171875 145.976562 57.957031 143.304688 52.105469 139.90625 C 46.972656 136.945312 42.203125 133.546875 37.722656 129.71875 C 34.039062 126.539062 30.640625 123.140625 27.460938 119.527344 C 25.292969 117 23.199219 114.324219 21.246094 111.578125 C 20.453125 110.492188 19.730469 109.339844 19.078125 108.183594 L 0 87.585938 L 0 40.976562 C 0 18.355469 18.28125 0 40.902344 0 L 77.398438 0 L 104.421875 27.460938 C 165.414062 68.941406 145.6875 114.683594 145.6875 114.683594 C 145.6875 114.683594 163.03125 134.195312 156.09375 151.324219 Z M 156.09375 151.324219 "/>
<path style=" stroke:none;fill-rule:nonzero;fill:rgb(100%,100%,100%);fill-opacity:1;" d="M 104.566406 27.460938 C 165.5625 68.941406 145.832031 114.683594 145.832031 114.683594 C 145.832031 114.683594 163.175781 134.269531 156.164062 151.398438 C 156.164062 151.398438 149.011719 139.398438 137.015625 139.398438 C 125.453125 139.398438 118.660156 151.398438 95.390625 151.398438 C 43.578125 151.398438 19.078125 108.109375 19.078125 108.109375 C 65.761719 138.820312 97.632812 117.070312 97.632812 117.070312 C 76.601562 104.859375 31.867188 46.46875 31.867188 46.46875 C 70.820312 79.636719 87.65625 88.382812 87.65625 88.382812 C 77.613281 80.070312 49.429688 39.457031 49.429688 39.457031 C 71.976562 62.292969 116.78125 94.164062 116.78125 94.164062 C 129.5 58.898438 104.566406 27.460938 104.566406 27.460938 Z M 104.566406 27.460938 "/>
</g>
</svg>
