<?xml version="1.0" encoding="UTF-8"?>
<svg xmlns="http://www.w3.org/2000/svg" xmlns:xlink="http://www.w3.org/1999/xlink" width="185pt" height="185pt" viewBox="0 0 185 185" version="1.1">
<g id="surface1">
<path style=" stroke:none;fill-rule:nonzero;fill:rgb(0%,47.843137%,80%);fill-opacity:1;" d="M 0 92.5 L 0 185 L 185 185 L 185 0 L 0 0 Z M 0 92.5 "/>
<path style=" stroke:none;fill-rule:nonzero;fill:rgb(100%,100%,100%);fill-opacity:1;" d="M 40.910156 93.113281 L 40.851562 100.691406 L 64.929688 100.691406 L 64.929688 169.109375 L 81.960938 169.109375 L 81.960938 100.691406 L 106.042969 100.691406 L 106.042969 93.261719 C 106.042969 89.148438 105.953125 85.714844 105.835938 85.625 C 105.75 85.507812 91.09375 85.449219 73.328125 85.480469 L 41 85.566406 Z M 40.910156 93.113281 "/>
<path style=" stroke:none;fill-rule:nonzero;fill:rgb(100%,100%,100%);fill-opacity:1;" d="M 149.277344 85.351562 C 153.976562 86.527344 157.558594 88.609375 160.847656 92.019531 C 162.550781 93.839844 165.074219 97.15625 165.28125 97.949219 C 165.339844 98.183594 157.292969 103.585938 152.417969 106.613281 C 152.242188 106.730469 151.539062 105.964844 150.746094 104.792969 C 148.367188 101.328125 145.871094 99.828125 142.054688 99.5625 C 136.445312 99.183594 132.832031 102.121094 132.863281 107.023438 C 132.863281 108.460938 133.066406 109.3125 133.65625 110.488281 C 134.886719 113.042969 137.179688 114.570312 144.371094 117.683594 C 157.617188 123.378906 163.285156 127.136719 166.808594 132.484375 C 170.742188 138.445312 171.625 147.957031 168.953125 155.035156 C 166.015625 162.730469 158.730469 167.957031 148.484375 169.6875 C 145.3125 170.246094 137.792969 170.15625 134.386719 169.542969 C 126.960938 168.21875 119.910156 164.550781 115.566406 159.734375 C 113.863281 157.855469 110.542969 152.949219 110.75 152.597656 C 110.835938 152.480469 111.601562 152.011719 112.453125 151.511719 C 113.273438 151.042969 116.386719 149.25 119.324219 147.546875 L 124.640625 144.464844 L 125.753906 146.109375 C 127.3125 148.488281 130.71875 151.746094 132.773438 152.832031 C 138.675781 155.945312 146.78125 155.503906 150.773438 151.921875 C 152.476562 150.367188 153.183594 148.75 153.183594 146.371094 C 153.183594 144.230469 152.917969 143.289062 151.800781 141.675781 C 150.363281 139.617188 147.425781 137.886719 139.085938 134.273438 C 129.542969 130.164062 125.433594 127.609375 121.671875 123.554688 C 119.5 121.207031 117.445312 117.449219 116.59375 114.304688 C 115.886719 111.691406 115.710938 105.144531 116.269531 102.5 C 118.238281 93.28125 125.199219 86.847656 135.238281 84.941406 C 138.5 84.324219 146.074219 84.558594 149.277344 85.351562 Z M 149.277344 85.351562 "/>
</g>
</svg>
